<?xml version="1.0" encoding="utf-8"?>
<!-- Generator: Adobe Illustrator 18.1.1, SVG Export Plug-In . SVG Version: 6.00 Build 0)  -->
<svg version="1.1" id="Layer_1" xmlns="http://www.w3.org/2000/svg" xmlns:xlink="http://www.w3.org/1999/xlink" x="0px" y="0px"
	 viewBox="0 0 187.1 33.5" enable-background="new 0 0 187.1 33.5" xml:space="preserve">
<g>
	<path fill-rule="evenodd" clip-rule="evenodd" fill="#FFFFFF" d="M126.3,32.8c0,0.2,0.2,0.4,0.4,0.4l0,0h9.2l0,0
		c0.2,0,0.4-0.2,0.4-0.4l0,0v-32l0,0c0-0.2-0.2-0.4-0.4-0.4l0,0h-9.2l0,0c-0.2,0-0.4,0.2-0.4,0.4l0,0V32.8L126.3,32.8L126.3,32.8z"
		/>
	<path fill-rule="evenodd" clip-rule="evenodd" fill="#FFFFFF" d="M83.2,32.4L69.6,1l0,0c-0.1-0.2-0.3-0.3-0.5-0.3l0,0H55.4l0,0
		c-0.2,0-0.4,0.2-0.5,0.3l0,0L41.3,32.4l0,0c-0.1,0.2,0,0.3,0.2,0.3l0,0h9.6l0,0c0.2,0,0.4-0.2,0.5-0.3l0,0l2-4.9l0,0
		c0.1-0.2,0.3-0.3,0.5-0.3l0,0h16.3l0,0c0.2,0,0.4,0.2,0.5,0.3l0,0l1.8,4.9l0,0c0.1,0.2,0.3,0.3,0.5,0.3l0,0h9.7l0,0
		C83.1,32.8,83.3,32.6,83.2,32.4L83.2,32.4L83.2,32.4L83.2,32.4z M56.3,20.4l4.5-11.7l0,0c0.5-1.2,1-1.3,1.5-1.3
		c0.5,0,1.1,0.5,1.4,1.4l0,0l4.4,11.6H56.3L56.3,20.4L56.3,20.4z"/>
	<path fill-rule="evenodd" clip-rule="evenodd" fill="#FFFFFF" d="M166.9,0.2h-10.5l0,0c-12.7,0.2-14.7,4.2-14.7,16.1c0,2,0,4,0.1,6
		c0.3,7.9,4.7,10.4,11.9,10.9c2.3,0.1,7.5,0.2,7.7,0.2c0,0,5.9-0.1,8.2-0.2c7.2-0.5,11.5-3,11.9-10.9c0.1-2,0.1-4,0.1-6
		C181.6,4.5,179.6,0.4,166.9,0.2L166.9,0.2L166.9,0.2L166.9,0.2z M171.5,17.7c0,5.4-0.3,7.5-6.3,7.7c-1.6,0.1-5.6,0.1-7.2,0
		c-5.9-0.1-6.3-2.3-6.3-7.7l0,0v-1.3l0,0c0-1.3,0-2.6,0.1-3.8c0.6-4.5,4-4.3,7.3-4.4c1.2,0,3.6,0,4.8,0c3.3,0.1,6.7-0.1,7.3,4.4
		c0.1,1.3,0.1,2.6,0.1,3.8l0,0V17.7L171.5,17.7L171.5,17.7z"/>
	<path fill-rule="evenodd" clip-rule="evenodd" fill="#FFFFFF" d="M29.8,20.6c-0.3,3.3-1.4,4.7-6.2,4.8c-1.6,0.1-5.6,0.1-7.2,0
		c-5.9-0.1-6.3-2.3-6.3-7.7l0,0v-1.3l0,0c0-1.3,0-2.6,0.1-3.8c0.6-4.5,4-4.3,7.3-4.4c1.2,0,3.6,0,4.8,0c3.2,0.1,6.4-0.1,7.2,3.8l0,0
		h10.2l0,0C39.2,3.5,36.2,0.4,25.2,0.2l0,0H14.7l0,0C2,0.4,0,4.5,0,16.4c0,2,0,4,0.1,6C0.4,30.3,4.8,32.8,12,33.3
		c2.3,0.1,7.5,0.2,7.7,0.2c0,0,5.9-0.1,8.2-0.2c7.2-0.5,11.5-3,11.9-10.9c0-0.6,0-1.2,0.1-1.8l0,0H29.8L29.8,20.6L29.8,20.6z"/>
	<path fill-rule="evenodd" clip-rule="evenodd" fill="#FFFFFF" d="M96.2,20.4c2.2,0,4.4,0.1,6.6,0.1l0,0l2.7,0.1l0,0
		c2.3,0.1,5.7-0.7,5.7,3c0,2.4-2.3,2.4-4.1,2.5c-2.6,0.1-2.2,0.1-4.7,0.1c-1.6,0-1.7,0-3.3-0.1c-2.2-0.1-3.7-0.7-3.8-3.1l0,0
		L85.5,23l0,0c0,2.1-0.1,3.7,0.9,5.6c2.3,3.9,7,4.6,11,4.7l0,0l4.7,0.1l0,0c3.8,0,9.2,0,12.7-0.9c5.2-1.3,6.1-4.6,6.2-9.5
		c0-2.6-0.6-4.7-1.7-6.1c-1.5-1.9-3.8-2.9-6.6-3c-5.5-0.3-6.7-0.4-12.1-0.4l0,0l-1.8,0l0,0c-2.2,0-4.6-0.7-4.6-3.4
		c0-2.8,2.2-2.9,4.4-3c1.1,0,2.4,0,4.6,0c1.6,0,1.1,0.1,2.7,0.1c2.7,0,5.2,0.1,5.1,3.1l0,0l9.8,0.1l0-1.5l0,0
		c0.1-7.4-4.8-8.3-10.3-8.7C108.4,0,106.1,0,103.9,0c-4.3,0-4.2,0.1-8.5,0.3c-7.6,0.5-11.1,2-11.2,10C84.2,18.8,88.6,20.3,96.2,20.4
		L96.2,20.4L96.2,20.4L96.2,20.4z"/>
	<path fill-rule="evenodd" clip-rule="evenodd" fill="#FFFFFF" d="M186.8,29.4c-0.2-0.4-0.5-0.7-0.9-0.9c-0.4-0.2-0.8-0.3-1.2-0.3
		c-0.4,0-0.9,0.1-1.2,0.3c-0.4,0.2-0.7,0.5-0.9,0.9c-0.2,0.4-0.3,0.8-0.3,1.3c0,0.5,0.1,0.9,0.3,1.3c0.2,0.4,0.5,0.7,0.9,0.9
		c0.4,0.2,0.8,0.3,1.2,0.3c0.4,0,0.8-0.1,1.2-0.3c0.4-0.2,0.7-0.5,0.9-0.9s0.3-0.8,0.3-1.3C187.1,30.2,187,29.8,186.8,29.4
		L186.8,29.4L186.8,29.4L186.8,29.4z M186.4,31.7c-0.2,0.3-0.5,0.6-0.8,0.8c-0.3,0.2-0.7,0.3-1,0.3s-0.7-0.1-1-0.3
		c-0.3-0.2-0.6-0.4-0.8-0.8c-0.2-0.3-0.3-0.7-0.3-1.1c0-0.4,0.1-0.7,0.3-1.1c0.2-0.3,0.4-0.6,0.8-0.8c0.3-0.2,0.7-0.3,1.1-0.3
		s0.7,0.1,1.1,0.3c0.3,0.2,0.6,0.4,0.8,0.8c0.2,0.3,0.3,0.7,0.3,1.1C186.7,31,186.6,31.4,186.4,31.7L186.4,31.7L186.4,31.7
		L186.4,31.7z"/>
	<path fill-rule="evenodd" clip-rule="evenodd" fill="#FFFFFF" d="M185.3,31.2c-0.1-0.2-0.2-0.4-0.3-0.4c0.2-0.1,0.4-0.2,0.5-0.4
		c0.1-0.2,0.1-0.3,0.1-0.5c0-0.2,0-0.3-0.1-0.4c-0.1-0.1-0.2-0.2-0.3-0.3c-0.1-0.1-0.3-0.1-0.5-0.1l0,0h-1v3.1h0.5v-1.3h0.4l0,0
		c0.1,0,0.1,0.1,0.2,0.3l0,0l0.1,0.2l0.4,0.8h0.6L185.3,31.2L185.3,31.2L185.3,31.2z M184.5,30.5h-0.3v-1h0.4l0,0
		c0.2,0,0.3,0,0.4,0.1c0.1,0,0.1,0.1,0.2,0.2c0,0.1,0.1,0.1,0.1,0.2c0,0.1,0,0.3-0.1,0.4C184.8,30.5,184.7,30.5,184.5,30.5
		L184.5,30.5L184.5,30.5L184.5,30.5z"/>
</g>
</svg>
